<svg xmlns="http://www.w3.org/2000/svg" xmlns:xlink="http://www.w3.org/1999/xlink" width="268" height="53.912" viewBox="0 0 268 53.912">
  <defs>
    <clipPath id="clip-path">
      <rect id="Rectangle_1" data-name="Rectangle 1" width="268" height="53.912" fill="none"/>
    </clipPath>
  </defs>
  <g id="logo" transform="translate(0 0)">
    <g id="Group_1" data-name="Group 1" transform="translate(0 0)" clip-path="url(#clip-path)">
      <path id="Path_1" data-name="Path 1" d="M32.431,18.3c2.713.258,4.7-.37,6.162-2.469a8.958,8.958,0,0,0,.484-.779c.006-.012.484-.892.5-.9.138-.182.3-.025.207.2-.012.031-.358.943-.377.967a7.167,7.167,0,0,1-.452.905A6.083,6.083,0,0,1,35.559,19.1a12.9,12.9,0,0,1-5.823.314c-4.51,1.884-3.416,3.863-3.567,5.214a1.05,1.05,0,0,1,.176.05,10.422,10.422,0,0,1,1.118-1.187,18.388,18.388,0,0,1,5.728-2.732,6.179,6.179,0,0,1-1.639,5.276c-.4.422-1.52.911-1.766,1.439a1.539,1.539,0,0,0,.133,1.646c.295.333.779.465,1.048.823.559.741-.088,1.671.352,2.82a1.958,1.958,0,0,1,.37.672,26.049,26.049,0,0,0,1.985,2.783c.616.578,1.357,1.162,1.458,2a5.743,5.743,0,0,0,.056.66c.182.791.635.665-.6,1.784a12.069,12.069,0,0,1-2.5.333,14.555,14.555,0,0,0,1.771.289,4.505,4.505,0,0,1-1.991,1.042,24.739,24.739,0,0,1-2.789-.709,12.5,12.5,0,0,0-3.3.477,5.929,5.929,0,0,0,3.178-.068,27.034,27.034,0,0,0,1.495,5.308,14.5,14.5,0,0,1,.9,3.1c.056.32.1.641.132.961a22.4,22.4,0,0,1-14.975.534.74.74,0,0,1,.032-.126c-.019.037-.044.075-.063.12a21.372,21.372,0,0,1-3.091-1.244c-.006-.157-.019-.314-.019-.471a3.929,3.929,0,0,1,.032-.584c.339-3.63,3.938-12.342,4.578-13.869a16.943,16.943,0,0,0-1.363-3.951c-1.4-2.3-3.643-.986-5.766-5.773-.182-.414-1.25-3.492-.811-3.919.534-.527,1.954.056,2.412.339A44.417,44.417,0,0,0,16.32,24.8a27.393,27.393,0,0,1,3.11,3,14.306,14.306,0,0,0-1.527-2.9l.949.037c-.037-1.507.691-3.373-3.724-5.219a13.636,13.636,0,0,1-6.119-.327A6.092,6.092,0,0,1,6.345,17.6a6.307,6.307,0,0,1-.6-.767,7.6,7.6,0,0,1-.509-.866,6.43,6.43,0,0,1-.308-.654.214.214,0,0,1,.389-.176c.081.145.17.29.258.434a8.451,8.451,0,0,0,.559.792,6.84,6.84,0,0,0,.647.7C8.2,18.366,10,18.749,12.294,18.535a13.77,13.77,0,0,1-4.033-3.083c-.213-.232-.414-.484-.609-.729s-.389-.5-.565-.76c-.069-.095-.139-.2-.2-.289A8.549,8.549,0,0,1,.824,6.99a.147.147,0,0,1,.283-.075,7.622,7.622,0,0,0,4.585,4.611C3.65,6.7,6.025.992,8.625.005,9.1-.17,6.1,3.775,6.552,7.638a8.006,8.006,0,0,0,.232,1.727A6.559,6.559,0,0,1,8.167,8.252a6.645,6.645,0,0,0,.779-2.3.155.155,0,0,1,.308,0A7.6,7.6,0,0,1,9.279,7.5a12.164,12.164,0,0,0,2.965-3.2.162.162,0,0,1,.289.139c-1.168,3.624-4,4.786-4.787,5.891-.126.182-.289.472-.4.666a10.92,10.92,0,0,0,1.03,1.8c.176.258.364.509.565.761s.4.471.622.7a12.163,12.163,0,0,0,3.1,2.386,34.132,34.132,0,0,0,4.5,2.117c-1.294-1.815-4.88-3.335-4.365-6.727a4.071,4.071,0,0,1,.113-.533.27.27,0,0,1,.527.113.318.318,0,0,0-.006.075,3.75,3.75,0,0,0,.389,2.248c1,1.909,3.669,2.519,4.963,4.673a8.72,8.72,0,0,1,.452-3.737.189.189,0,0,1,.364.063,25.572,25.572,0,0,0,1.231,6.947,9.556,9.556,0,0,1,1.394,3.273c.371.038.61.063.767.075A11.822,11.822,0,0,1,24.3,21.5a24.59,24.59,0,0,0,1.169-6.633.178.178,0,0,1,.345-.056,8.364,8.364,0,0,1,.434,3.561c1.237-2.054,3.775-2.626,4.729-4.454a3.56,3.56,0,0,0,.358-2.211.261.261,0,0,1,.509-.113,4.25,4.25,0,0,1-.169,2.645c-.78,1.909-2.827,2.789-3.882,4.278a32.925,32.925,0,0,0,4.29-2.017,11.872,11.872,0,0,0,3.681-3.128,9.128,9.128,0,0,0,.553-.761c.175-.264.339-.533.49-.8.119-.225.232-.459.339-.691-1.08-1.928-2.293-1.72-3.913-4.164A8.44,8.44,0,0,1,32.2,4.867a.155.155,0,0,1,.277-.132,11.545,11.545,0,0,0,2.827,3.046,7.227,7.227,0,0,1,.018-1.476.149.149,0,0,1,.3,0,6.245,6.245,0,0,0,.741,2.186,5.929,5.929,0,0,1,1.319,1.073,7.771,7.771,0,0,0,.225-1.652C38.336,4.226,35.478.464,35.93.64c2.481.936,4.742,6.382,2.795,10.968A7.232,7.232,0,0,0,43.1,7.222a.14.14,0,0,1,.27.069,8.314,8.314,0,0,1-4.7,6.011,5.257,5.257,0,0,1-1.03.352c-.019.006-.037.006-.056.012-.164.252-.339.5-.521.735a13.02,13.02,0,0,1-4.63,3.894" transform="translate(0.005 0)" fill="#213629"/>
      <path id="Path_2" data-name="Path 2" d="M41.244,45.307c.208-.255.407-.514.6-.777.13-.173.259-.346.383-.522.2-.282.389-.567.574-.857.107-.167.212-.334.315-.5.187-.309.366-.621.538-.939q.128-.237.252-.477c.172-.337.337-.676.493-1.021.066-.147.13-.295.193-.444.156-.364.3-.732.443-1.106.048-.133.093-.267.139-.4.138-.4.268-.793.383-1.2.032-.114.061-.229.093-.344.115-.427.223-.856.315-1.292.018-.09.033-.181.051-.271.092-.463.174-.929.237-1.4.008-.055.012-.113.019-.168.065-.507.118-1.017.15-1.533.03-.49.055-.981.055-1.476a23.062,23.062,0,0,0-6.219-15.809c-.17.446-.242.634-.283.721a7.751,7.751,0,0,1-.485.964c-.033.058-.07.111-.1.168A21.2,21.2,0,0,1,44.6,30.583c0,.495-.02.987-.053,1.476h0c-.033.481-.083.957-.147,1.43,0,.029-.006.058-.01.088-.055.4-.13.8-.208,1.194-.02.106-.035.212-.057.318-.072.34-.162.675-.249,1.01-.042.157-.077.317-.123.472-.083.289-.18.571-.276.855-.066.2-.129.4-.2.6-.089.24-.189.475-.286.712s-.19.47-.294.7c-.089.2-.187.388-.282.581-.129.265-.259.529-.4.787-.085.156-.175.307-.264.46-.166.29-.335.577-.515.859-.075.118-.156.232-.233.349-.207.309-.419.615-.641.912-.064.086-.131.168-.2.253-.248.322-.5.639-.772.947-.049.056-.1.112-.15.168-.292.329-.593.651-.906.962-.032.033-.066.065-.1.1q-.5.495-1.039.957l-.051.043q-.567.483-1.168.929l-.006,0a21.548,21.548,0,0,1-4.028,2.343v0c-.2.088-.387.183-.588.265-.068.032-.144.057-.213.089a21.5,21.5,0,0,1-14.346.509l-.139-.044h-.006a21.075,21.075,0,0,1-2.845-1.15c-.139-.075-.271-.138-.4-.213-.2-.1-.393-.22-.59-.33h0a21.448,21.448,0,0,1-5.528-4.413l-.007-.008q-.453-.506-.871-1.04L6.372,43.7q-.4-.513-.767-1.049c-.02-.03-.042-.059-.063-.091-.232-.342-.452-.692-.664-1.047-.028-.047-.058-.094-.086-.141-.2-.339-.384-.685-.563-1.035-.034-.066-.071-.132-.1-.2-.167-.332-.32-.671-.468-1.013-.038-.088-.08-.173-.117-.261-.136-.324-.259-.655-.378-.987-.039-.108-.083-.213-.121-.323-.108-.316-.2-.637-.3-.959-.037-.128-.08-.254-.115-.382-.084-.306-.152-.617-.22-.928-.033-.148-.073-.294-.1-.443-.06-.3-.106-.612-.154-.92-.025-.158-.057-.314-.078-.474-.057-.432-.1-.868-.131-1.307,0-.029-.007-.057-.009-.087q-.05-.733-.05-1.476A21.111,21.111,0,0,1,5.972,18.019c-.03-.033-.064-.061-.095-.1a6.936,6.936,0,0,1-.644-.828,7.69,7.69,0,0,1-.4-.687A22.94,22.94,0,0,0,0,30.583a23.662,23.662,0,0,0,.177,2.8c.01.088.016.176.028.263.051.4.12.79.191,1.18.023.128.041.256.066.381.073.364.16.723.249,1.081.037.15.071.3.112.45.092.338.2.671.3,1,.052.165.1.33.16.493.109.316.227.626.349.936.068.174.138.349.21.522.125.294.257.583.392.871.087.182.174.363.265.542q.207.41.431.811.157.281.32.556c.151.254.3.5.466.752q.184.284.377.562c.162.233.325.467.5.694.142.191.289.377.438.563.171.214.342.429.521.638.163.19.332.375.5.56s.355.39.54.579.378.37.569.553.365.351.554.521c.21.187.429.365.646.545.185.154.367.311.557.459.24.186.49.362.738.54.18.13.356.264.541.388.289.2.589.376.887.559.156.1.307.2.466.29q.7.4,1.425.766a23.89,23.89,0,0,0,3.16,1.275l.232.069a23.373,23.373,0,0,0,15.465-.6c.542-.216,1.071-.453,1.59-.7.18-.088.35-.186.526-.278.332-.172.666-.343.988-.529.211-.123.411-.257.618-.385.275-.17.55-.338.817-.519.22-.15.431-.311.645-.469.236-.173.476-.344.705-.526s.436-.363.651-.547.414-.35.614-.533c.22-.2.432-.412.643-.623.179-.178.359-.354.532-.537.215-.227.422-.463.627-.7.154-.177.308-.353.456-.534" transform="translate(0 0.089)" fill="#213629"/>
      <path id="Path_3" data-name="Path 3" d="M71.226,28.217A9.78,9.78,0,0,0,66.4,27.01a9.226,9.226,0,0,0-5.238,1.5,7.739,7.739,0,0,0-2.391,2.527V16.676h-2.9V53.231h2.9V37.778a9.046,9.046,0,0,1,.894-4.1,6.842,6.842,0,0,1,2.511-2.8,6.982,6.982,0,0,1,3.791-1.014,7.427,7.427,0,0,1,3.645.893,6.531,6.531,0,0,1,2.56,2.559,7.981,7.981,0,0,1,.941,3.984V53.231h2.9V36.475a9.237,9.237,0,0,0-4.781-8.257" transform="translate(0.337 0.101)" fill="#213629"/>
      <path id="Path_4" data-name="Path 4" d="M84.746,50.43l9.465-10.382q2.656-2.849,4.418-5.07a21.539,21.539,0,0,0,2.7-4.249,9.869,9.869,0,0,0,.942-4.2,9.361,9.361,0,0,0-5.191-8.619A11.777,11.777,0,0,0,91.6,16.677a12.445,12.445,0,0,0-5.36,1.135A10.836,10.836,0,0,0,82.187,21.1a13.1,13.1,0,0,0-2.318,5.19l2.849.628a9.954,9.954,0,0,1,3.139-5.5A8.54,8.54,0,0,1,91.6,19.428a7.828,7.828,0,0,1,5.53,1.859,6.8,6.8,0,0,1,2,5.239,8.687,8.687,0,0,1-.99,4.1,21.1,21.1,0,0,1-2.945,4.08q-1.957,2.2-4.951,5.481L80.159,51.3v1.932h22.889v-2.8Z" transform="translate(0.481 0.101)" fill="#213629"/>
      <path id="Path_5" data-name="Path 5" d="M132.722,35a11.172,11.172,0,0,0,1.69-6.253,11.485,11.485,0,0,0-1.642-6.326,10.277,10.277,0,0,0-4.514-3.863,15.8,15.8,0,0,0-6.592-1.3H107.9V53.228h7.486V40.19H120.7l7.292,13.038h8.4l-8.21-14.342A10.563,10.563,0,0,0,132.722,35m-6.447-3.694a4.585,4.585,0,0,1-1.811,1.738,5.691,5.691,0,0,1-2.751.628h-6.326v-9.9h6.326a5.7,5.7,0,0,1,2.751.628,4.589,4.589,0,0,1,1.811,1.737,5.057,5.057,0,0,1,.652,2.609,4.952,4.952,0,0,1-.652,2.559" transform="translate(0.65 0.104)" fill="#213629"/>
      <path id="Path_6" data-name="Path 6" d="M154.907,27.436a13.655,13.655,0,0,0-5.89-1.208,14.859,14.859,0,0,0-5.168.87,11.7,11.7,0,0,0-4.055,2.462,9.408,9.408,0,0,0-2.463,3.815l5.794,2.752a6.107,6.107,0,0,1,2.149-2.8,5.68,5.68,0,0,1,3.405-1.062,4.768,4.768,0,0,1,3.21,1.014,3.177,3.177,0,0,1,1.183,2.511v.705l-7.291,1.178a15.853,15.853,0,0,0-5.239,1.642,7.979,7.979,0,0,0-3.116,2.874,7.589,7.589,0,0,0-1.013,3.936,7.327,7.327,0,0,0,1.111,4.079,7.088,7.088,0,0,0,3.187,2.633,12.128,12.128,0,0,0,4.925.917A12.641,12.641,0,0,0,149.5,53.2a9.548,9.548,0,0,0,3.14-1.69,11.065,11.065,0,0,0,.917-.847v2.514h6.759V35.789a8.837,8.837,0,0,0-1.425-5,9.516,9.516,0,0,0-3.984-3.355m-2.582,18.132a5.482,5.482,0,0,1-2.1,2.1,6.2,6.2,0,0,1-3.138.773,3.726,3.726,0,0,1-2.271-.675,2.211,2.211,0,0,1-.917-1.884,2.491,2.491,0,0,1,.82-2,5.036,5.036,0,0,1,2.367-.99l5.987-1.068v.828a5.856,5.856,0,0,1-.747,2.921" transform="translate(0.822 0.158)" fill="#213629"/>
      <path id="Path_7" data-name="Path 7" d="M183.482,29.107a8.929,8.929,0,0,0-2.439-1.735,11.68,11.68,0,0,0-5.143-1.087,12.935,12.935,0,0,0-6.809,1.835,13.564,13.564,0,0,0-4.829,4.95,13.771,13.771,0,0,0-1.787,6.978A13.957,13.957,0,0,0,164.238,47a13.315,13.315,0,0,0,4.8,4.974,13.1,13.1,0,0,0,6.905,1.836,12.67,12.67,0,0,0,5.022-.991,8.556,8.556,0,0,0,2.994-2.09v2.5h6.76V16.676h-7.243Zm-.845,14.707a6.332,6.332,0,0,1-2.342,2.559,6.521,6.521,0,0,1-3.477.917,6.9,6.9,0,0,1-3.55-.917,6.324,6.324,0,0,1-2.438-2.559,7.911,7.911,0,0,1-.869-3.767,7.777,7.777,0,0,1,.869-3.742,6.546,6.546,0,0,1,2.438-2.559,6.767,6.767,0,0,1,3.55-.942,6.521,6.521,0,0,1,3.477.917,6.345,6.345,0,0,1,2.342,2.559,8.817,8.817,0,0,1,0,7.533" transform="translate(0.979 0.101)" fill="#213629"/>
      <path id="Path_8" data-name="Path 8" d="M213.3,27.485a10.562,10.562,0,0,0-5.239-1.256,9.773,9.773,0,0,0-4.8,1.135,6.373,6.373,0,0,0-2.583,2.693V26.808h-6.76V53.174h7.243V37.77a5.475,5.475,0,0,1,.6-2.656,4.351,4.351,0,0,1,1.713-1.739,5.386,5.386,0,0,1,5.047,0,4.406,4.406,0,0,1,1.69,1.739,5.486,5.486,0,0,1,.6,2.656v15.4h7.243V36.225a10.556,10.556,0,0,0-1.257-5.24,8.932,8.932,0,0,0-3.5-3.5" transform="translate(1.168 0.158)" fill="#213629"/>
      <path id="Path_9" data-name="Path 9" d="M241.9,28.016a15.033,15.033,0,0,0-14.22,0,13.764,13.764,0,0,0-5.119,4.876,13.231,13.231,0,0,0-1.908,7.1,13.263,13.263,0,0,0,1.908,7.074,13.7,13.7,0,0,0,5.119,4.9,15.033,15.033,0,0,0,14.22,0,13.757,13.757,0,0,0,5.094-4.9A13.271,13.271,0,0,0,248.9,39.99a13.239,13.239,0,0,0-1.907-7.1,13.824,13.824,0,0,0-5.094-4.876m-1.328,15.741a6.193,6.193,0,0,1-5.77,3.477,6.514,6.514,0,0,1-3.477-.917,6.313,6.313,0,0,1-2.343-2.559,8.108,8.108,0,0,1-.844-3.767,7.97,7.97,0,0,1,.844-3.742,6.539,6.539,0,0,1,2.343-2.559,6.386,6.386,0,0,1,3.477-.942,6.269,6.269,0,0,1,3.452.942,6.607,6.607,0,0,1,2.318,2.559,7.971,7.971,0,0,1,.845,3.742,8.109,8.109,0,0,1-.845,3.767" transform="translate(1.329 0.158)" fill="#213629"/>
      <path id="Path_10" data-name="Path 10" d="M264.942,26.517a9.2,9.2,0,0,0-4.756,1.183,5.973,5.973,0,0,0-2.39,3.044V26.807h-6.76V53.173h7.243v-14.2a6.119,6.119,0,0,1,1.642-4.563,5.859,5.859,0,0,1,4.3-1.618h2.27V26.517Z" transform="translate(1.512 0.16)" fill="#213629"/>
    </g>
  </g>
</svg>
